<?xml version="1.0" standalone="no"?>
<!DOCTYPE svg PUBLIC "-//W3C//DTD SVG 20010904//EN"
 "http://www.w3.org/TR/2001/REC-SVG-20010904/DTD/svg10.dtd">
<svg version="1.0" xmlns="http://www.w3.org/2000/svg"
 width="1217.000000pt" height="406.000000pt" viewBox="0 0 1217.000000 406.000000"
 preserveAspectRatio="xMidYMid meet">

<g transform="translate(0.000000,406.000000) scale(0.100000,-0.100000)"
fill="#000000" stroke="none">
<path d="M1865 3725 c-440 -70 -822 -315 -1071 -686 -114 -171 -198 -378 -241
-594 -25 -126 -25 -434 0 -560 111 -562 476 -1002 993 -1196 601 -227 1259
-77 1705 389 405 421 540 1029 353 1591 -79 238 -196 425 -383 611 -242 241
-517 384 -848 440 -135 23 -380 26 -508 5z m507 -205 c547 -112 967 -527 1090
-1080 19 -87 23 -134 23 -275 0 -194 -20 -307 -82 -475 -45 -121 -67 -164
-140 -275 -210 -319 -517 -527 -896 -606 -136 -29 -360 -31 -497 -5 -290 56
-528 182 -735 390 -268 270 -405 598 -405 971 0 373 137 701 405 971 238 239
506 366 865 408 71 8 278 -5 372 -24z"/>
<path d="M1915 3509 c-304 -44 -574 -184 -791 -411 -179 -188 -290 -400 -345
-660 -32 -147 -32 -399 0 -546 55 -260 166 -472 345 -660 116 -121 234 -209
371 -277 195 -96 339 -133 555 -142 308 -12 588 68 838 239 112 77 266 234
345 354 157 237 227 469 227 759 0 290 -70 522 -227 759 -79 120 -233 277
-345 354 -168 115 -376 197 -573 227 -107 16 -303 18 -400 4z m-35 -944 c53
-53 103 -107 110 -121 13 -23 11 -28 -43 -82 -66 -67 -71 -90 -28 -148 45 -62
182 -196 236 -232 80 -53 90 -52 142 7 66 75 77 72 194 -46 53 -54 99 -107
103 -117 10 -28 -104 -132 -159 -147 -59 -16 -153 3 -254 51 -104 50 -169 98
-280 204 -221 214 -317 422 -268 578 14 42 109 148 133 148 9 0 61 -43 114
-95z"/>
<path d="M4820 2539 c-111 -22 -180 -102 -180 -210 0 -129 60 -187 237 -229
75 -17 103 -42 103 -90 0 -63 -25 -83 -109 -88 -65 -4 -106 4 -183 33 -13 5
-23 -6 -42 -44 l-26 -50 23 -16 c43 -31 129 -49 227 -50 85 0 102 4 153 29 82
40 111 86 115 183 3 44 -1 85 -8 104 -23 54 -83 94 -192 129 -100 32 -148 63
-148 94 0 28 22 64 47 75 34 16 121 13 168 -5 22 -8 47 -18 55 -20 11 -4 23
12 42 49 l27 55 -50 21 c-88 38 -169 48 -259 30z"/>
<path d="M5485 2543 c-38 -10 -78 -46 -96 -88 -18 -41 -179 -608 -179 -630 0
-7 29 -16 70 -22 l70 -9 10 35 c5 20 16 66 26 104 l16 67 122 0 122 0 23 -97
c13 -54 25 -101 27 -104 3 -5 145 8 151 14 6 7 -158 632 -174 659 -10 17 -29
39 -43 50 -26 19 -109 31 -145 21z m94 -255 c17 -73 31 -139 31 -145 0 -10
-24 -13 -85 -13 -54 0 -85 4 -85 11 0 13 47 201 61 247 7 20 17 32 29 32 15 0
23 -23 49 -132z"/>
<path d="M7085 2543 c-38 -10 -78 -46 -96 -88 -18 -41 -179 -608 -179 -630 0
-7 29 -16 70 -22 l70 -9 10 35 c5 20 16 66 26 104 l16 67 122 0 122 0 23 -97
c13 -54 25 -101 27 -104 3 -5 145 8 151 14 6 7 -158 632 -174 659 -10 17 -29
39 -43 50 -26 19 -109 31 -145 21z m94 -255 c17 -73 31 -139 31 -145 0 -10
-24 -13 -85 -13 -54 0 -85 4 -85 11 0 13 47 201 61 247 7 20 17 32 29 32 15 0
23 -23 49 -132z"/>
<path d="M8775 2543 c-38 -10 -78 -46 -96 -88 -18 -41 -179 -608 -179 -630 0
-7 29 -16 70 -22 l70 -9 10 35 c5 20 16 66 26 104 l16 67 122 0 122 0 23 -97
c13 -54 25 -101 27 -104 3 -5 145 8 151 14 6 7 -158 632 -174 659 -10 17 -29
39 -43 50 -26 19 -109 31 -145 21z m94 -255 c17 -73 31 -139 31 -145 0 -10
-24 -13 -85 -13 -54 0 -85 4 -85 11 0 13 47 201 61 247 7 20 17 32 29 32 15 0
23 -23 49 -132z"/>
<path d="M9680 2539 c-111 -22 -180 -102 -180 -210 0 -129 60 -187 237 -229
75 -17 103 -42 103 -90 0 -63 -25 -83 -109 -88 -65 -4 -106 4 -183 33 -13 5
-23 -6 -42 -44 l-26 -50 23 -16 c43 -31 129 -49 227 -50 85 0 102 4 153 29 82
40 111 86 115 183 3 44 -1 85 -8 104 -23 54 -83 94 -192 129 -100 32 -148 63
-148 94 0 28 22 64 47 75 34 16 121 13 168 -5 22 -8 47 -18 55 -20 11 -4 23
12 42 49 l27 55 -50 21 c-88 38 -169 48 -259 30z"/>
<path d="M5930 2170 l0 -360 80 0 80 0 0 360 0 360 -80 0 -80 0 0 -360z"/>
<path d="M6230 2170 l0 -362 183 4 c157 3 188 7 227 24 54 25 77 50 96 101 31
87 6 190 -57 233 -19 13 -36 25 -38 26 -2 2 10 15 27 29 39 33 56 84 49 147
-8 63 -39 105 -96 131 -40 19 -70 22 -218 25 l-173 4 0 -362z m326 205 c21
-28 17 -82 -6 -105 -16 -16 -33 -20 -90 -20 l-70 0 0 76 0 76 76 -4 c60 -3 79
-7 90 -23z m11 -270 c47 -33 37 -136 -14 -156 -13 -5 -56 -9 -94 -9 l-69 0 0
90 0 90 78 0 c53 0 84 -5 99 -15z"/>
<path d="M7756 2453 c-3 -43 -10 -181 -16 -308 -6 -126 -12 -254 -15 -282 l-5
-53 75 0 75 0 1 108 c1 59 5 159 8 222 l7 115 30 -65 c17 -36 41 -87 54 -113
34 -71 89 -94 150 -62 22 12 43 43 87 133 l58 117 6 -155 c4 -85 7 -188 8
-227 l1 -73 76 0 75 0 -5 68 c-3 37 -10 166 -16 287 -6 121 -13 253 -16 293
l-6 72 -66 0 -67 0 -84 -180 c-56 -119 -90 -180 -99 -178 -7 2 -48 83 -90 181
l-77 177 -71 0 -72 0 -6 -77z"/>
<path d="M9220 2170 l0 -360 80 0 80 0 0 360 0 360 -80 0 -80 0 0 -360z"/>
</g>
</svg>
